<mxfile host="app.diagrams.net" modified="2022-02-27T01:28:55.803Z" agent="5.0 (Windows NT 10.0; Win64; x64) AppleWebKit/537.36 (KHTML, like Gecko) Chrome/98.0.4758.102 Safari/537.36" etag="OQMumML2tVZKLBB09bD3" version="16.6.4" type="github">
  <diagram id="tJU6p03IrcDgfjxadE7d" name="Page-1">
    <mxGraphModel dx="1422" dy="762" grid="1" gridSize="10" guides="1" tooltips="1" connect="1" arrows="1" fold="1" page="1" pageScale="1" pageWidth="850" pageHeight="1100" math="0" shadow="0">
      <root>
        <mxCell id="0" />
        <mxCell id="1" parent="0" />
        <mxCell id="5KHUcxx69F2K2ZxtLzjd-25" value="" style="rounded=1;whiteSpace=wrap;html=1;fontSize=14;" vertex="1" parent="1">
          <mxGeometry x="570" y="210" width="260" height="370" as="geometry" />
        </mxCell>
        <mxCell id="5KHUcxx69F2K2ZxtLzjd-3" value="" style="edgeStyle=orthogonalEdgeStyle;rounded=0;orthogonalLoop=1;jettySize=auto;html=1;exitX=1;exitY=0.25;exitDx=0;exitDy=0;entryX=0;entryY=0.25;entryDx=0;entryDy=0;" edge="1" parent="1" source="5KHUcxx69F2K2ZxtLzjd-1" target="5KHUcxx69F2K2ZxtLzjd-2">
          <mxGeometry relative="1" as="geometry" />
        </mxCell>
        <mxCell id="5KHUcxx69F2K2ZxtLzjd-1" value="Proton&lt;br&gt;Client" style="rounded=1;whiteSpace=wrap;html=1;" vertex="1" parent="1">
          <mxGeometry x="120" y="260" width="120" height="60" as="geometry" />
        </mxCell>
        <mxCell id="5KHUcxx69F2K2ZxtLzjd-2" value="Istio &lt;br&gt;ingress gateway" style="rounded=1;whiteSpace=wrap;html=1;" vertex="1" parent="1">
          <mxGeometry x="320" y="260" width="120" height="60" as="geometry" />
        </mxCell>
        <mxCell id="5KHUcxx69F2K2ZxtLzjd-4" value="&lt;font style=&quot;font-size: 14px&quot;&gt;Server to client private link&lt;/font&gt;" style="text;html=1;strokeColor=none;fillColor=none;align=center;verticalAlign=middle;whiteSpace=wrap;rounded=0;" vertex="1" parent="1">
          <mxGeometry x="120" y="20" width="180" height="30" as="geometry" />
        </mxCell>
        <mxCell id="5KHUcxx69F2K2ZxtLzjd-5" value="" style="rounded=1;whiteSpace=wrap;html=1;" vertex="1" parent="1">
          <mxGeometry x="620" y="260" width="120" height="60" as="geometry" />
        </mxCell>
        <mxCell id="5KHUcxx69F2K2ZxtLzjd-6" value="" style="endArrow=none;html=1;rounded=0;" edge="1" parent="1">
          <mxGeometry width="50" height="50" relative="1" as="geometry">
            <mxPoint x="120" y="80" as="sourcePoint" />
            <mxPoint x="640" y="80" as="targetPoint" />
          </mxGeometry>
        </mxCell>
        <mxCell id="5KHUcxx69F2K2ZxtLzjd-8" value="" style="shape=cylinder3;whiteSpace=wrap;html=1;boundedLbl=1;backgroundOutline=1;size=15;fontSize=14;" vertex="1" parent="1">
          <mxGeometry x="150" y="390" width="60" height="80" as="geometry" />
        </mxCell>
        <mxCell id="5KHUcxx69F2K2ZxtLzjd-10" value="" style="shape=flexArrow;endArrow=classic;html=1;rounded=0;fontSize=14;exitX=0;exitY=0.75;exitDx=0;exitDy=0;entryX=1;entryY=0.75;entryDx=0;entryDy=0;" edge="1" parent="1" source="5KHUcxx69F2K2ZxtLzjd-5" target="5KHUcxx69F2K2ZxtLzjd-2">
          <mxGeometry width="50" height="50" relative="1" as="geometry">
            <mxPoint x="270" y="360" as="sourcePoint" />
            <mxPoint x="320" y="310" as="targetPoint" />
          </mxGeometry>
        </mxCell>
        <mxCell id="5KHUcxx69F2K2ZxtLzjd-11" value="" style="edgeStyle=orthogonalEdgeStyle;rounded=0;orthogonalLoop=1;jettySize=auto;html=1;entryX=0;entryY=0.25;entryDx=0;entryDy=0;exitX=1;exitY=0.25;exitDx=0;exitDy=0;" edge="1" parent="1" source="5KHUcxx69F2K2ZxtLzjd-2" target="5KHUcxx69F2K2ZxtLzjd-5">
          <mxGeometry relative="1" as="geometry">
            <mxPoint x="250" y="300" as="sourcePoint" />
            <mxPoint x="330" y="300" as="targetPoint" />
          </mxGeometry>
        </mxCell>
        <mxCell id="5KHUcxx69F2K2ZxtLzjd-13" value="" style="shape=flexArrow;endArrow=classic;html=1;rounded=0;fontSize=14;exitX=0;exitY=0.75;exitDx=0;exitDy=0;entryX=1;entryY=0.75;entryDx=0;entryDy=0;" edge="1" parent="1" source="5KHUcxx69F2K2ZxtLzjd-2" target="5KHUcxx69F2K2ZxtLzjd-1">
          <mxGeometry width="50" height="50" relative="1" as="geometry">
            <mxPoint x="290" y="310" as="sourcePoint" />
            <mxPoint x="240" y="310" as="targetPoint" />
          </mxGeometry>
        </mxCell>
        <mxCell id="5KHUcxx69F2K2ZxtLzjd-14" value="" style="shape=flexArrow;endArrow=classic;html=1;rounded=0;fontSize=14;exitX=0.5;exitY=1;exitDx=0;exitDy=0;entryX=0.5;entryY=0;entryDx=0;entryDy=0;entryPerimeter=0;" edge="1" parent="1" source="5KHUcxx69F2K2ZxtLzjd-1" target="5KHUcxx69F2K2ZxtLzjd-8">
          <mxGeometry width="50" height="50" relative="1" as="geometry">
            <mxPoint x="160" y="390" as="sourcePoint" />
            <mxPoint x="210" y="340" as="targetPoint" />
          </mxGeometry>
        </mxCell>
        <mxCell id="5KHUcxx69F2K2ZxtLzjd-15" value="User" style="shape=umlActor;verticalLabelPosition=bottom;verticalAlign=top;html=1;outlineConnect=0;fontSize=14;" vertex="1" parent="1">
          <mxGeometry x="160" y="100" width="30" height="60" as="geometry" />
        </mxCell>
        <mxCell id="5KHUcxx69F2K2ZxtLzjd-16" value="" style="endArrow=classic;html=1;rounded=0;fontSize=14;" edge="1" parent="1" source="5KHUcxx69F2K2ZxtLzjd-15">
          <mxGeometry width="50" height="50" relative="1" as="geometry">
            <mxPoint x="240" y="170" as="sourcePoint" />
            <mxPoint x="480" y="130" as="targetPoint" />
          </mxGeometry>
        </mxCell>
        <mxCell id="5KHUcxx69F2K2ZxtLzjd-17" value="Configure exposure of DB to a server side process" style="shape=process;whiteSpace=wrap;html=1;backgroundOutline=1;fontSize=14;" vertex="1" parent="1">
          <mxGeometry x="480" y="100" width="180" height="60" as="geometry" />
        </mxCell>
        <mxCell id="5KHUcxx69F2K2ZxtLzjd-18" value="IP: 1.1.1.1:3306" style="text;html=1;strokeColor=none;fillColor=none;align=center;verticalAlign=middle;whiteSpace=wrap;rounded=0;fontSize=14;" vertex="1" parent="1">
          <mxGeometry x="10" y="415" width="110" height="30" as="geometry" />
        </mxCell>
        <mxCell id="5KHUcxx69F2K2ZxtLzjd-19" value="IP: 1.1.1.1:3306 is exposed for a pod" style="text;html=1;strokeColor=none;fillColor=none;align=center;verticalAlign=middle;whiteSpace=wrap;rounded=0;fontSize=14;" vertex="1" parent="1">
          <mxGeometry x="670" y="110" width="160" height="30" as="geometry" />
        </mxCell>
        <mxCell id="5KHUcxx69F2K2ZxtLzjd-20" value="proton client initiates HTTP/2 connection" style="shape=callout;whiteSpace=wrap;html=1;perimeter=calloutPerimeter;fontSize=14;size=30;position=0.42;" vertex="1" parent="1">
          <mxGeometry x="230" y="180" width="120" height="90" as="geometry" />
        </mxCell>
        <mxCell id="5KHUcxx69F2K2ZxtLzjd-21" value="Istio forwards it to proton sidecar" style="shape=callout;whiteSpace=wrap;html=1;perimeter=calloutPerimeter;fontSize=14;size=30;position=0.42;base=20;" vertex="1" parent="1">
          <mxGeometry x="400" y="180" width="120" height="90" as="geometry" />
        </mxCell>
        <mxCell id="5KHUcxx69F2K2ZxtLzjd-24" value="Istio forwards it to proton server" style="shape=callout;whiteSpace=wrap;html=1;perimeter=calloutPerimeter;fontSize=14;size=30;position=0.42;base=10;direction=west;" vertex="1" parent="1">
          <mxGeometry x="420" y="310" width="120" height="90" as="geometry" />
        </mxCell>
        <mxCell id="5KHUcxx69F2K2ZxtLzjd-26" value="Pod that requires an access to DB" style="text;html=1;strokeColor=none;fillColor=none;align=center;verticalAlign=middle;whiteSpace=wrap;rounded=0;fontSize=14;" vertex="1" parent="1">
          <mxGeometry x="600" y="220" width="150" height="30" as="geometry" />
        </mxCell>
        <mxCell id="5KHUcxx69F2K2ZxtLzjd-27" value="Server Application" style="rounded=1;whiteSpace=wrap;html=1;" vertex="1" parent="1">
          <mxGeometry x="620" y="440" width="120" height="60" as="geometry" />
        </mxCell>
        <mxCell id="5KHUcxx69F2K2ZxtLzjd-28" value="Istio &lt;br&gt;sidecar" style="rounded=1;whiteSpace=wrap;html=1;" vertex="1" parent="1">
          <mxGeometry x="620" y="350" width="120" height="60" as="geometry" />
        </mxCell>
        <mxCell id="5KHUcxx69F2K2ZxtLzjd-30" value="" style="endArrow=classic;html=1;rounded=0;fontSize=14;entryX=0.5;entryY=1;entryDx=0;entryDy=0;" edge="1" parent="1" source="5KHUcxx69F2K2ZxtLzjd-27" target="5KHUcxx69F2K2ZxtLzjd-28">
          <mxGeometry width="50" height="50" relative="1" as="geometry">
            <mxPoint x="-80" y="580" as="sourcePoint" />
            <mxPoint x="-30" y="530" as="targetPoint" />
          </mxGeometry>
        </mxCell>
      </root>
    </mxGraphModel>
  </diagram>
</mxfile>
